<svg id="_x31__x2C_5" enable-background="new 0 0 24 24" height="512" viewBox="0 0 24 24" width="512" xmlns="http://www.w3.org/2000/svg"><path d="m18.5 7.25h-15c-1.519 0-2.75-1.231-2.75-2.75 0-1.519 1.231-2.75 2.75-2.75h15c1.519 0 2.75 1.231 2.75 2.75 0 1.519-1.231 2.75-2.75 2.75z" fill="#cfd8dc"/><path d="m18.5 12.75h-15c-1.519 0-2.75-1.231-2.75-2.75 0-1.519 1.231-2.75 2.75-2.75h15c1.519 0 2.75 1.231 2.75 2.75 0 1.519-1.231 2.75-2.75 2.75z" fill="#90a4ae"/><path d="m18.5 18.25h-15c-1.519 0-2.75-1.231-2.75-2.75 0-1.519 1.231-2.75 2.75-2.75h15c1.519 0 2.75 1.231 2.75 2.75 0 1.519-1.231 2.75-2.75 2.75z" fill="#cfd8dc"/><path d="m22.25 23.25h-5.5c-.552 0-1-.448-1-1v-3.5c0-.552.448-1 1-1h5.5c.552 0 1 .448 1 1v3.5c0 .552-.448 1-1 1z" fill="#ffc107"/><path d="m18.5 8h-15c-1.93 0-3.5-1.57-3.5-3.5s1.57-3.5 3.5-3.5h15c1.93 0 3.5 1.57 3.5 3.5s-1.57 3.5-3.5 3.5zm-15-5.5c-1.103 0-2 .897-2 2s.897 2 2 2h15c1.103 0 2-.897 2-2s-.897-2-2-2z"/><circle cx="5" cy="4.5" r="1"/><circle cx="9" cy="4.5" r="1"/><path d="m15.25 13.5h-11.75c-1.93 0-3.5-1.57-3.5-3.5 0-.929.377-1.831 1.035-2.476.633-.647 1.536-1.024 2.465-1.024h15c1.93 0 3.5 1.57 3.5 3.5 0 .325-.046.655-.138.982-.111.398-.525.63-.924.521-.399-.111-.632-.525-.521-.925.055-.195.083-.39.083-.578 0-1.103-.897-2-2-2h-15c-.536 0-1.035.208-1.404.584-.388.381-.596.88-.596 1.416 0 1.103.897 2 2 2h11.75c.414 0 .75.336.75.75s-.336.75-.75.75z"/><circle cx="5" cy="10" r="1"/><circle cx="9" cy="10" r="1"/><path d="m12.25 19h-8.75c-1.93 0-3.5-1.57-3.5-3.5 0-.929.377-1.831 1.035-2.476.633-.647 1.536-1.024 2.465-1.024h11.11c.414 0 .75.336.75.75s-.336.75-.75.75h-11.11c-.536 0-1.035.208-1.404.584-.388.381-.596.88-.596 1.416 0 1.103.897 2 2 2h8.75c.414 0 .75.336.75.75s-.336.75-.75.75z"/><circle cx="5" cy="15.5" r="1"/><circle cx="9" cy="15.5" r="1"/><path d="m22.25 24h-5.5c-.965 0-1.75-.785-1.75-1.75v-3.5c0-.965.785-1.75 1.75-1.75h5.5c.965 0 1.75.785 1.75 1.75v3.5c0 .965-.785 1.75-1.75 1.75zm-5.5-5.5c-.138 0-.25.112-.25.25v3.5c0 .138.112.25.25.25h5.5c.138 0 .25-.112.25-.25v-3.5c0-.138-.112-.25-.25-.25z"/><path d="m22 17.75h-1.5v-2.25c0-.552-.449-1-1-1s-1 .448-1 1v2.25h-1.5v-2.25c0-1.379 1.122-2.5 2.5-2.5s2.5 1.121 2.5 2.5z"/></svg>